<?xml version="1.0" encoding="UTF-8" ?>
<!DOCTYPE svg PUBLIC "-//W3C//DTD SVG 1.1//EN" "http://www.w3.org/Graphics/SVG/1.1/DTD/svg11.dtd">
<svg width="1000pt" height="394pt" viewBox="0 0 1000 394" version="1.1" xmlns="http://www.w3.org/2000/svg">
<path fill="#0d91bd" d=" M 884.32 129.31 C 888.28 125.03 894.20 122.70 900.02 122.94 C 909.69 123.01 919.37 122.91 929.04 122.99 C 932.90 122.83 936.56 126.20 936.47 130.12 C 936.59 138.36 936.55 146.60 936.47 154.84 C 939.43 153.40 942.53 151.84 945.93 151.98 C 956.65 152.03 967.37 151.97 978.10 152.01 C 982.09 152.07 985.12 156.07 984.76 159.93 C 984.75 189.96 984.76 219.99 984.76 250.02 C 985.16 254.29 981.32 258.29 977.03 257.90 C 953.01 257.87 929.00 257.92 904.99 257.88 C 901.35 257.98 897.87 254.74 897.92 251.07 C 897.77 243.72 897.90 236.37 897.87 229.02 C 884.22 228.97 870.57 229.02 856.92 229.00 C 853.15 229.17 849.54 225.81 849.75 221.97 C 849.67 205.33 849.75 188.69 849.72 172.05 C 849.58 166.71 851.91 161.42 855.82 157.80 C 865.31 148.29 874.83 138.82 884.32 129.31 Z" />
<path fill="#f5f5f5" d=" M 897.91 132.75 C 907.55 132.76 917.20 132.73 926.85 132.76 C 926.75 143.14 926.78 153.51 926.83 163.89 C 919.05 171.77 911.14 179.53 903.35 187.40 C 899.30 191.46 897.42 197.33 897.85 203.00 C 897.88 208.44 897.81 213.88 897.91 219.33 C 885.01 219.33 872.11 219.42 859.22 219.28 C 859.36 203.27 859.24 187.26 859.28 171.26 C 869.84 171.19 880.41 171.39 890.98 171.16 C 894.71 171.29 897.96 167.78 897.90 164.11 C 897.93 153.66 897.89 143.20 897.91 132.75 Z" />
<path fill="#0d91bd" d=" M 35.02 141.34 C 45.92 139.04 57.76 140.08 67.71 145.24 C 76.49 149.86 81.56 159.53 82.12 169.23 C 78.00 169.52 73.88 169.86 69.75 170.05 C 69.01 164.61 66.89 158.95 62.13 155.82 C 55.90 151.68 48.03 151.69 40.85 152.17 C 35.13 152.68 29.04 154.73 25.88 159.86 C 23.17 163.90 23.27 169.77 26.49 173.51 C 28.72 176.23 32.18 177.40 35.39 178.54 C 46.46 182.18 58.30 183.30 68.99 188.09 C 75.78 191.14 81.85 196.66 83.88 204.02 C 86.60 212.64 84.00 222.43 77.99 229.07 C 71.98 235.87 62.89 239.12 54.05 240.02 C 42.74 240.68 30.48 239.63 21.00 232.83 C 12.74 227.00 8.21 216.99 7.83 207.04 C 11.86 206.85 15.88 206.48 19.91 206.26 C 20.81 211.48 22.17 217.03 26.17 220.80 C 32.20 226.57 40.86 228.57 48.99 228.60 C 55.55 228.38 62.57 227.16 67.68 222.74 C 72.17 218.89 73.91 212.06 71.29 206.67 C 69.26 202.42 64.87 200.01 60.59 198.54 C 50.28 195.10 39.44 193.50 29.21 189.77 C 22.23 187.16 15.59 182.19 13.01 174.96 C 10.22 167.04 11.82 157.71 17.23 151.25 C 21.58 145.75 28.33 142.83 35.02 141.34 Z" />
<path fill="#f5f5f5" d=" M 865.82 161.56 C 873.24 154.04 880.82 146.69 888.18 139.12 C 888.08 146.57 888.17 154.03 888.13 161.48 C 880.69 161.46 873.25 161.34 865.82 161.56 Z" />
<path fill="#0d91bd" d=" M 323.88 149.94 C 331.76 141.74 344.31 140.03 355.06 142.01 C 365.38 143.58 374.64 151.56 376.81 161.91 C 379.04 171.33 375.61 181.18 369.56 188.45 C 360.31 199.59 348.45 208.09 337.78 217.77 C 334.93 220.34 332.44 223.28 330.32 226.47 C 346.08 226.37 361.84 226.45 377.61 226.43 C 377.61 230.52 377.61 234.60 377.60 238.69 C 356.24 238.61 334.86 238.89 313.50 238.55 C 313.96 226.98 321.67 217.38 329.81 209.86 C 339.56 201.25 350.25 193.57 358.62 183.52 C 362.39 178.91 365.58 173.22 365.11 167.06 C 365.20 160.05 359.60 153.79 352.94 152.16 C 346.33 150.36 338.48 151.50 333.49 156.47 C 329.53 160.24 328.35 165.84 328.05 171.08 C 324.01 170.26 319.87 170.10 315.83 169.27 C 316.76 162.30 318.78 155.06 323.88 149.94 Z" />
<path fill="#0d91bd" d=" M 395.73 141.94 C 417.48 141.94 439.24 141.94 460.99 141.94 C 460.90 145.78 460.91 149.63 460.97 153.47 C 443.49 153.59 426.01 153.43 408.53 153.55 C 408.60 163.36 408.61 173.18 408.52 182.99 C 423.67 183.02 438.83 182.98 453.99 183.01 C 453.99 186.95 454.00 190.88 453.97 194.82 C 438.83 194.87 423.68 194.81 408.54 194.85 C 408.61 209.46 408.56 224.08 408.57 238.69 C 404.32 238.71 400.08 238.65 395.84 238.75 C 395.62 206.49 395.84 174.21 395.73 141.94 Z" />
<path fill="#0d91bd" d=" M 476.01 141.94 C 480.01 141.94 484.00 141.94 488.00 141.94 C 487.94 146.52 488.06 151.11 487.91 155.69 C 483.98 155.65 480.05 155.66 476.12 155.68 C 476.01 151.10 476.14 146.52 476.01 141.94 Z" />
<path fill="#0d91bd" d=" M 505.77 141.94 C 509.78 141.94 513.78 141.94 517.79 141.94 C 517.67 174.19 517.77 206.43 517.74 238.68 C 513.77 238.71 509.79 238.68 505.83 238.73 C 505.73 206.47 505.84 174.20 505.77 141.94 Z" />
<path fill="#0d91bd" d=" M 612.46 141.94 C 616.87 141.94 621.29 141.93 625.71 141.95 C 637.23 159.22 648.74 176.50 660.29 193.75 C 665.63 201.59 670.62 209.71 676.25 217.34 C 676.26 192.21 676.32 167.08 676.21 141.94 C 680.40 141.94 684.59 141.94 688.78 141.94 C 688.66 174.19 688.77 206.44 688.72 238.69 C 684.30 238.69 679.88 238.73 675.47 238.66 C 658.67 213.35 641.74 188.12 624.96 162.80 C 624.80 188.10 624.96 213.39 624.88 238.69 C 620.78 238.71 616.69 238.65 612.60 238.77 C 612.35 206.49 612.63 174.22 612.46 141.94 Z" />
<path fill="#0d91bd" d=" M 785.90 150.99 C 789.83 148.50 793.83 146.12 797.87 143.81 C 797.66 151.94 797.83 160.07 797.77 168.21 C 801.73 168.21 805.69 168.19 809.66 168.21 C 809.65 171.20 809.66 174.20 809.72 177.19 C 805.75 177.28 801.77 177.25 797.80 177.21 C 797.74 191.47 797.80 205.74 797.77 220.01 C 797.89 222.48 797.46 225.52 799.70 227.24 C 802.51 229.58 806.56 227.83 809.64 228.96 C 810.33 232.32 810.78 235.72 811.27 239.11 C 804.60 240.49 796.77 241.35 790.88 237.21 C 786.60 234.29 786.11 228.67 785.96 223.96 C 785.88 208.39 785.95 192.81 785.93 177.24 C 782.96 177.24 780.00 177.24 777.05 177.22 C 777.09 174.22 777.10 171.21 777.13 168.21 C 780.08 168.20 783.02 168.20 785.98 168.19 C 785.87 162.46 785.97 156.73 785.90 150.99 Z" />
<path fill="#f5f5f5" d=" M 946.16 161.47 C 955.72 161.46 965.29 161.60 974.86 161.40 C 975.20 190.29 974.90 219.19 975.01 248.09 C 952.53 248.07 930.04 248.10 907.55 248.07 C 907.62 232.05 907.58 216.03 907.57 200.01 C 918.06 199.99 928.54 199.99 939.03 200.02 C 942.76 200.29 946.24 196.75 946.11 193.04 C 946.20 182.52 946.08 171.99 946.16 161.47 Z" />
<path fill="#0d91bd" d=" M 106.43 175.46 C 112.57 169.36 121.46 166.39 130.04 166.73 C 138.36 166.64 147.09 170.05 152.03 176.97 C 154.70 180.45 156.08 184.68 157.15 188.89 C 153.31 189.50 149.45 189.93 145.62 190.58 C 144.35 186.57 142.81 182.35 139.36 179.67 C 132.57 173.95 121.72 175.66 115.79 181.84 C 110.44 187.42 109.58 195.62 109.37 202.99 C 109.52 210.28 110.07 218.25 114.78 224.19 C 120.72 231.79 133.27 233.07 140.35 226.37 C 144.17 222.88 145.74 217.68 146.42 212.69 C 150.34 213.12 154.21 213.88 158.13 214.24 C 156.90 224.64 150.23 234.64 140.17 238.27 C 128.52 242.47 113.98 240.07 105.61 230.50 C 98.72 222.83 96.90 212.01 97.12 202.02 C 97.47 192.57 99.70 182.49 106.43 175.46 Z" />
<path fill="#0d91bd" d=" M 176.03 172.13 C 184.89 166.49 195.93 166.08 206.08 167.20 C 211.87 168.21 218.20 170.31 221.61 175.45 C 224.24 179.41 224.95 184.28 224.93 188.95 C 225.03 201.31 224.77 213.67 225.29 226.02 C 225.48 230.46 226.71 234.78 228.70 238.76 C 224.56 238.67 220.42 238.69 216.29 238.71 C 215.04 235.86 214.22 232.85 213.87 229.76 C 207.31 235.66 198.97 240.05 189.98 240.15 C 182.92 240.51 175.17 239.24 169.92 234.11 C 163.12 227.73 162.43 216.31 167.79 208.82 C 171.54 203.48 177.84 200.54 184.12 199.41 C 193.77 197.75 203.73 197.39 213.04 194.08 C 213.05 189.26 213.18 183.33 208.81 180.18 C 203.01 176.04 195.24 176.37 188.55 177.59 C 182.48 178.69 179.23 184.58 177.85 190.07 C 173.98 189.38 170.06 189.05 166.20 188.35 C 167.67 182.13 170.42 175.69 176.03 172.13 Z" />
<path fill="#0d91bd" d=" M 254.06 178.13 C 262.29 165.18 281.91 163.04 293.61 172.34 C 298.52 176.74 300.31 183.64 300.21 190.04 C 300.45 206.28 300.45 222.54 300.24 238.78 C 296.30 238.64 292.36 238.71 288.42 238.69 C 288.39 223.79 288.47 208.88 288.39 193.97 C 288.29 188.89 287.77 182.92 283.25 179.71 C 276.21 174.60 265.46 176.42 259.74 182.75 C 256.24 186.98 255.64 192.71 255.39 198.00 C 255.24 211.60 255.56 225.20 255.24 238.79 C 251.30 238.63 247.36 238.71 243.43 238.70 C 243.42 215.20 243.41 191.70 243.43 168.20 C 246.99 168.20 250.55 168.20 254.12 168.20 C 254.15 171.51 254.14 174.82 254.06 178.13 Z" />
<path fill="#0d91bd" d=" M 550.61 169.56 C 562.77 164.16 578.64 166.14 587.72 176.35 C 595.17 184.36 596.90 195.82 596.51 206.36 C 579.07 206.35 561.63 206.34 544.18 206.36 C 544.78 212.71 546.12 219.44 550.66 224.23 C 556.83 231.41 568.61 232.92 576.29 227.31 C 580.15 224.57 582.16 220.12 583.89 215.88 C 587.95 216.37 591.99 217.05 596.08 217.35 C 594.21 225.62 588.75 233.25 581.02 236.94 C 573.46 240.62 564.62 240.87 556.48 239.34 C 546.72 237.42 538.25 230.24 534.81 220.90 C 531.27 211.41 531.18 200.85 533.45 191.06 C 535.59 181.82 541.84 173.42 550.61 169.56 Z" />
<path fill="#0d91bd" d=" M 713.60 176.57 C 725.64 163.03 749.96 163.24 761.32 177.56 C 767.96 185.50 769.51 196.34 769.01 206.37 C 751.65 206.31 734.30 206.40 716.95 206.32 C 717.03 213.09 719.10 220.15 723.97 225.04 C 730.24 231.43 741.11 232.64 748.53 227.57 C 752.52 224.85 754.74 220.33 756.36 215.92 C 760.51 216.34 764.63 217.02 768.78 217.45 C 766.82 224.59 762.72 231.37 756.37 235.40 C 748.87 240.23 739.48 240.89 730.85 239.69 C 722.82 238.44 715.31 234.01 710.73 227.25 C 705.28 219.39 704.15 209.41 704.71 200.09 C 705.12 191.61 707.67 182.87 713.60 176.57 Z" />
<path fill="#0d91bd" d=" M 476.11 168.20 C 480.06 168.20 484.00 168.20 487.95 168.21 C 487.98 191.71 488.06 215.22 487.92 238.72 C 483.98 238.68 480.04 238.70 476.11 238.70 C 476.06 215.20 476.05 191.70 476.11 168.20 Z" />
<path fill="#f5f5f5" d=" M 913.88 190.63 C 921.38 183.05 928.91 175.50 936.52 168.04 C 936.44 175.52 936.50 183.00 936.48 190.48 C 928.94 190.57 921.41 190.30 913.88 190.63 Z" />
<path fill="#f5f5f5" d=" M 552.51 180.58 C 559.51 174.51 571.03 174.74 577.67 181.26 C 582.08 185.21 583.34 191.28 584.04 196.90 C 570.99 197.00 557.94 196.88 544.90 196.96 C 545.22 190.81 547.59 184.50 552.51 180.58 Z" />
<path fill="#f5f5f5" d=" M 724.30 181.23 C 731.02 174.84 742.54 174.42 749.53 180.62 C 754.39 184.57 756.04 191.00 756.55 196.98 C 743.53 196.91 730.51 196.91 717.49 196.98 C 717.81 191.15 719.89 185.22 724.30 181.23 Z" />
<path fill="#f5f5f5" d=" M 191.10 208.55 C 198.47 207.47 205.94 206.43 212.94 203.76 C 213.01 210.49 213.28 218.16 208.44 223.50 C 202.20 230.31 191.45 232.61 182.94 229.12 C 177.47 226.80 175.10 219.41 178.49 214.45 C 181.13 210.15 186.53 209.31 191.10 208.55 Z" />
</svg>
