<?xml version="1.0" encoding="UTF-8" ?>
<!DOCTYPE svg PUBLIC "-//W3C//DTD SVG 1.1//EN" "http://www.w3.org/Graphics/SVG/1.1/DTD/svg11.dtd">
<svg width="1000px" height="394px" viewBox="0 0 255 47" version="1.1" xmlns="http://www.w3.org/2000/svg">
<path fill="#007794" d=" M 234.28 0.00 L 236.68 0.00 C 240.55 1.72 243.83 5.48 243.30 9.96 C 243.04 16.67 236.82 20.97 231.14 23.21 C 225.69 25.26 221.56 29.44 217.63 33.56 C 216.42 25.67 216.42 17.23 219.95 9.90 C 222.57 4.39 228.12 0.33 234.28 0.00 Z" />
<path fill="#007794" d=" M 75.20 2.23 C 78.21 0.59 80.93 5.35 77.98 7.04 C 74.84 9.46 71.80 3.73 75.20 2.23 Z" />
<path fill="#f05737" d=" M 175.13 2.36 C 176.73 1.48 179.03 2.05 179.41 4.02 C 180.26 6.42 177.10 8.65 175.15 7.02 C 173.50 6.06 173.59 3.35 175.13 2.36 Z" />
<path fill="#007794" d=" M 84.01 2.57 C 84.87 2.56 86.58 2.54 87.44 2.52 C 87.38 14.67 87.76 26.83 87.24 38.96 C 86.48 38.91 84.95 38.80 84.19 38.75 C 83.83 26.69 84.17 14.63 84.01 2.57 Z" />
<path fill="#f05737" d=" M 202.76 3.00 C 203.63 3.00 205.36 2.99 206.23 2.99 C 206.27 6.02 206.26 9.05 206.23 12.08 C 208.01 12.18 209.79 12.29 211.58 12.42 C 211.44 13.33 211.31 14.25 211.18 15.16 C 209.53 15.22 207.88 15.28 206.23 15.33 C 206.20 23.18 206.44 31.03 206.09 38.86 C 205.30 38.87 203.73 38.90 202.94 38.91 C 202.52 31.08 202.82 23.24 202.76 15.41 C 200.50 15.43 197.81 15.42 198.19 12.40 C 199.71 12.28 201.24 12.16 202.78 12.03 C 202.74 9.02 202.73 6.01 202.76 3.00 Z" />
<path fill="#007794" d=" M 0.92 12.29 C 1.64 12.25 3.08 12.19 3.81 12.16 C 3.92 13.40 4.04 14.64 4.15 15.89 C 6.69 12.71 10.97 10.54 15.04 11.96 C 17.61 12.46 19.03 14.81 20.32 16.85 C 22.73 13.57 26.61 10.80 30.89 11.68 C 34.95 12.11 37.63 16.05 37.72 19.91 C 38.15 26.20 38.05 32.53 37.75 38.82 C 36.64 38.70 34.51 39.47 34.58 37.63 C 34.12 31.16 35.22 24.55 33.85 18.16 C 31.47 12.73 23.35 14.89 21.79 19.88 C 20.10 25.74 21.52 31.93 20.78 37.90 C 20.41 39.57 17.58 39.37 17.60 37.61 C 17.20 31.78 17.90 25.92 17.29 20.10 C 17.24 17.36 14.83 14.94 12.09 14.93 C 8.54 14.80 5.32 17.61 4.54 21.00 C 3.45 26.32 4.25 31.78 3.90 37.16 C 4.33 39.07 2.28 38.75 1.08 39.06 C 0.73 30.13 0.98 21.21 0.92 12.29 Z" />
<path fill="#007794" d=" M 46.65 14.74 C 51.72 9.95 60.24 10.81 64.75 15.94 C 64.76 15.04 64.78 13.24 64.79 12.33 C 65.65 12.34 67.38 12.35 68.25 12.35 C 68.14 21.19 68.45 30.04 68.07 38.87 C 67.34 38.85 65.88 38.81 65.15 38.79 C 64.97 37.19 64.82 35.59 64.69 33.99 C 60.34 38.26 53.13 39.53 47.98 35.95 C 40.92 31.45 40.13 20.05 46.65 14.74 Z" />
<path fill="#007794" d=" M 74.87 12.24 C 75.68 12.24 77.32 12.24 78.13 12.24 C 78.25 21.10 78.46 29.97 78.00 38.81 C 77.23 38.83 75.69 38.87 74.92 38.88 C 74.63 30.01 74.72 21.12 74.87 12.24 Z" />
<path fill="#f05737" d=" M 96.33 20.91 C 94.69 17.23 97.02 12.41 101.05 11.73 C 104.48 10.79 107.68 12.90 110.11 15.09 C 108.70 17.59 106.60 16.67 104.66 15.46 C 102.30 13.66 98.26 16.01 99.06 18.97 C 101.17 22.90 106.54 23.30 108.92 27.00 C 111.02 30.64 109.52 35.95 105.43 37.44 C 101.54 39.03 95.25 37.47 94.36 32.94 C 95.27 29.91 97.76 32.96 99.25 33.74 C 102.21 36.64 108.13 32.98 106.15 29.03 C 103.51 25.60 98.02 25.24 96.33 20.91 Z" />
<path fill="#f05737" d=" M 114.05 24.97 C 113.69 17.93 119.90 11.31 127.02 11.52 C 130.85 11.32 134.05 13.60 136.83 15.93 C 136.81 15.04 136.77 13.28 136.74 12.39 C 137.62 12.38 139.37 12.35 140.25 12.34 C 140.24 23.89 140.31 35.45 140.21 47.00 L 136.81 47.00 C 136.73 42.65 136.70 38.31 136.82 33.96 C 133.90 36.00 130.76 38.27 127.01 38.04 C 119.98 38.41 113.89 31.86 114.05 24.97 Z" />
<path fill="#f05737" d=" M 146.75 13.93 C 146.22 11.91 148.76 12.35 149.89 11.97 C 150.28 18.04 149.46 24.25 150.77 30.23 C 152.83 36.29 162.94 36.14 164.64 29.89 C 165.56 24.06 165.16 18.13 165.24 12.25 C 166.41 12.25 167.58 12.25 168.75 12.26 C 168.54 18.77 169.41 25.45 167.68 31.82 C 164.78 40.42 150.00 40.20 147.50 31.41 C 146.10 25.71 146.94 19.75 146.75 13.93 Z" />
<path fill="#f05737" d=" M 175.12 12.18 C 175.91 12.17 177.51 12.16 178.30 12.16 C 178.58 21.15 178.72 30.19 178.20 39.18 C 177.10 38.96 176.02 38.70 174.95 38.40 C 175.12 29.66 174.83 20.91 175.12 12.18 Z" />
<path fill="#f05737" d=" M 187.38 14.81 C 189.67 12.32 192.95 10.91 196.33 11.88 C 195.95 12.96 195.53 14.03 195.09 15.09 C 192.42 14.71 189.47 15.59 188.45 18.33 C 185.99 24.88 188.05 32.05 186.96 38.84 C 186.18 38.86 184.62 38.91 183.84 38.93 C 183.13 30.05 183.64 21.11 183.54 12.20 C 185.52 12.15 187.82 12.17 187.38 14.81 Z" />
<path fill="#ffffff" d=" M 52.27 15.41 C 58.87 12.92 66.21 19.20 65.03 26.08 C 64.69 33.42 54.92 37.65 49.42 32.70 C 43.41 28.25 45.07 17.62 52.27 15.41 Z" />
<path fill="#ffffff" d=" M 124.33 15.40 C 131.41 12.73 138.77 20.21 136.76 27.28 C 135.46 34.57 125.01 37.50 120.29 31.67 C 115.32 26.76 117.68 17.43 124.33 15.40 Z" />
<path fill="#f05737" d=" M 226.86 31.57 C 231.51 27.18 237.35 23.21 244.01 23.35 C 248.66 23.17 253.24 25.91 255.00 30.27 L 255.00 31.81 C 254.65 35.10 252.41 38.30 248.91 38.62 C 244.32 39.48 240.38 36.67 236.68 34.43 C 233.75 32.52 230.24 32.06 226.86 31.57 Z" />
<path fill="#007794" d=" M 212.75 37.24 C 216.60 38.89 220.82 38.53 224.86 39.19 C 228.33 40.11 228.64 44.24 227.25 47.00 L 219.32 47.00 C 216.15 44.51 214.13 40.97 212.75 37.24 Z" />
</svg>
